STARTFONT 2.1
COMMENT $XConsortium: luBS19.bdf,v 1.3 94/04/02 15:59:38 gildea Exp $
COMMENT  (c) Copyright Bigelow & Holmes 1986, 1985. Lucida is a registered
COMMENT  trademark of Bigelow & Holmes. See LEGAL NOTICE file for terms 
COMMENT  of the license. 
COMMENT  
COMMENT  Translation to ISO8859-2 by Cub Soft;  Petr.Kolar@vslib.cz
COMMENT  
FONT -B&H-Lucida-Bold-R-Normal-Sans-19-190-75-75-P-122-ISO8859-2
SIZE 19 72 72
FONTBOUNDINGBOX 37 21 -13 -4
STARTPROPERTIES 20
COMMENT Begin LogicalFontDescription
FONTNAME_REGISTRY ""
FOUNDRY "B&H"
FAMILY_NAME "Lucida"
WEIGHT_NAME "Bold"
SLANT "R"
SETWIDTH_NAME "Normal"
ADD_STYLE_NAME "Sans"
PIXEL_SIZE 19
POINT_SIZE 190
RESOLUTION_X 75
RESOLUTION_Y 75
SPACING "P"
AVERAGE_WIDTH "122"
CHARSET_REGISTRY "ISO8859"
CHARSET_ENCODING "2"
COMMENT END LogicalFontDescription
COPYRIGHT "Copyright Bigelow & Holmes 1986, 1985., Copyright 1996 Cub Soft"
FONT_ASCENT 17
FONT_DESCENT 4
DEFAULT_CHAR 0
FACE_NAME "Lucida Sans Bold"
ENDPROPERTIES
CHARS 191
STARTCHAR space
ENCODING 32
SWIDTH 343 0
DWIDTH 6 0
BBX 1 1 0 0
BITMAP
00
ENDCHAR
STARTCHAR exclam
ENCODING 33
SWIDTH 265 0
DWIDTH 7 0
BBX 3 14 2 0
BITMAP
e0
e0
e0
e0
e0
e0
60
60
60
60
00
00
e0
e0
ENDCHAR
STARTCHAR quotedbl
ENCODING 34
SWIDTH 530 0
DWIDTH 10 0
BBX 9 5 1 9
BITMAP
f380
f380
e380
6300
6300
ENDCHAR
STARTCHAR numbersign
ENCODING 35
SWIDTH 687 0
DWIDTH 13 0
BBX 12 14 1 0
BITMAP
0660
0cc0
0cc0
0cc0
7ff0
7ff0
1980
1980
1980
ffe0
ffe0
3300
3300
6700
ENDCHAR
STARTCHAR dollar
ENCODING 36
SWIDTH 687 0
DWIDTH 13 0
BBX 10 20 2 -3
BITMAP
0c00
0c00
0c00
3f80
7f80
7480
f400
fc00
7c00
3f00
1f80
0f80
0bc0
09c0
cbc0
ff80
ff00
0c00
0c00
0c00
ENDCHAR
STARTCHAR percent
ENCODING 37
SWIDTH 898 0
DWIDTH 17 0
BBX 16 14 1 0
BITMAP
780e
7818
cc38
cc70
cc60
ccc0
79c0
7b80
031e
063f
0e33
1c33
183f
701e
ENDCHAR
STARTCHAR ampersand
ENCODING 38
SWIDTH 792 0
DWIDTH 15 0
BBX 14 14 1 0
BITMAP
0f80
3fc0
3860
3860
1de0
1f80
3f0c
771c
e79c
e3f8
e1f0
f0e0
7ff0
1f78
ENDCHAR
STARTCHAR apostrophe
ENCODING 39
SWIDTH 265 0
DWIDTH 5 0
BBX 4 6 1 8
BITMAP
f0
f0
f0
70
60
c0
ENDCHAR
STARTCHAR parenleft
ENCODING 40
SWIDTH 386 0
DWIDTH 7 0
BBX 5 18 1 -4
BITMAP
08
18
38
70
70
60
e0
e0
e0
e0
e0
e0
60
70
70
38
18
08
ENDCHAR
STARTCHAR parenright
ENCODING 41
SWIDTH 386 0
DWIDTH 7 0
BBX 5 18 1 -4
BITMAP
80
c0
e0
70
70
30
38
38
38
38
38
38
30
70
70
e0
c0
80
ENDCHAR
STARTCHAR asterisk
ENCODING 42
SWIDTH 464 0
DWIDTH 9 0
BBX 7 6 1 8
BITMAP
38
54
ee
28
6c
28
ENDCHAR
STARTCHAR plus
ENCODING 43
SWIDTH 687 0
DWIDTH 13 0
BBX 10 12 2 0
BITMAP
0c00
0c00
0c00
0c00
0c00
ffc0
ffc0
0c00
0c00
0c00
0c00
0c00
ENDCHAR
STARTCHAR comma
ENCODING 44
SWIDTH 343 0
DWIDTH 7 0
BBX 4 8 1 -4
BITMAP
f0
f0
f0
f0
70
70
60
c0
ENDCHAR
STARTCHAR minus
ENCODING 45
SWIDTH 687 0
DWIDTH 13 0
BBX 11 2 1 5
BITMAP
ffe0
ffe0
ENDCHAR
STARTCHAR period
ENCODING 46
SWIDTH 343 0
DWIDTH 7 0
BBX 4 3 1 0
BITMAP
f0
f0
f0
ENDCHAR
STARTCHAR slash
ENCODING 47
SWIDTH 596 0
DWIDTH 11 0
BBX 11 18 0 -4
BITMAP
00e0
00c0
01c0
0180
0380
0300
0300
0600
0600
0c00
0c00
1800
1800
3800
3000
7000
6000
e000
ENDCHAR
STARTCHAR zero
ENCODING 48
SWIDTH 687 0
DWIDTH 13 0
BBX 12 14 1 0
BITMAP
0f00
3fc0
70e0
6060
e070
e070
e070
e070
e070
e070
6060
70e0
3fc0
0f00
ENDCHAR
STARTCHAR one
ENCODING 49
SWIDTH 687 0
DWIDTH 13 0
BBX 5 14 3 0
BITMAP
f8
f8
38
38
38
38
38
38
38
38
38
38
38
38
ENDCHAR
STARTCHAR two
ENCODING 50
SWIDTH 687 0
DWIDTH 13 0
BBX 10 14 1 0
BITMAP
7f00
ff80
c3c0
01c0
01c0
01c0
0380
0700
0e00
3c00
7800
f000
ffc0
ffc0
ENDCHAR
STARTCHAR three
ENCODING 51
SWIDTH 687 0
DWIDTH 13 0
BBX 10 14 2 0
BITMAP
7f00
ff80
83c0
01c0
01c0
0380
7e00
7f00
0380
01c0
01c0
83c0
ff80
ff00
ENDCHAR
STARTCHAR four
ENCODING 52
SWIDTH 687 0
DWIDTH 13 0
BBX 11 14 1 0
BITMAP
03c0
03c0
07c0
0dc0
1dc0
39c0
71c0
e1c0
ffe0
ffe0
01c0
01c0
01c0
01c0
ENDCHAR
STARTCHAR five
ENCODING 53
SWIDTH 687 0
DWIDTH 13 0
BBX 9 14 3 0
BITMAP
ff80
ff80
c000
c000
c000
fc00
ff00
0f00
0380
0380
0380
8780
ff00
fc00
ENDCHAR
STARTCHAR six
ENCODING 54
SWIDTH 687 0
DWIDTH 13 0
BBX 11 14 1 0
BITMAP
0fc0
3fc0
7840
7000
e000
ef80
ffc0
f1e0
e0e0
e0e0
60e0
71c0
3fc0
1f00
ENDCHAR
STARTCHAR seven
ENCODING 55
SWIDTH 687 0
DWIDTH 13 0
BBX 10 14 2 0
BITMAP
ffc0
ffc0
01c0
0380
0300
0700
0e00
1c00
1c00
3800
3800
7800
7000
f000
ENDCHAR
STARTCHAR eight
ENCODING 56
SWIDTH 687 0
DWIDTH 13 0
BBX 11 14 1 0
BITMAP
1f00
3f80
71c0
71c0
79c0
3f80
1f80
7fc0
63e0
e0e0
e0e0
f1e0
7fc0
3f00
ENDCHAR
STARTCHAR nine
ENCODING 57
SWIDTH 687 0
DWIDTH 13 0
BBX 11 14 1 0
BITMAP
1f00
7f80
71c0
e0c0
e0e0
e0e0
f1e0
7fe0
3ee0
00e0
01c0
43c0
7f80
7e00
ENDCHAR
STARTCHAR colon
ENCODING 58
SWIDTH 343 0
DWIDTH 7 0
BBX 3 10 2 0
BITMAP
e0
e0
e0
00
00
00
00
e0
e0
e0
ENDCHAR
STARTCHAR semicolon
ENCODING 59
SWIDTH 343 0
DWIDTH 7 0
BBX 3 14 2 -4
BITMAP
e0
e0
e0
00
00
00
e0
e0
e0
e0
60
60
40
c0
ENDCHAR
STARTCHAR less
ENCODING 60
SWIDTH 687 0
DWIDTH 13 0
BBX 11 12 1 0
BITMAP
0020
00e0
01e0
0780
1e00
f800
7800
1e00
0780
01e0
00e0
0020
ENDCHAR
STARTCHAR equal
ENCODING 61
SWIDTH 687 0
DWIDTH 13 0
BBX 11 7 1 2
BITMAP
ffe0
ffe0
0000
0000
0000
ffe0
ffe0
ENDCHAR
STARTCHAR greater
ENCODING 62
SWIDTH 687 0
DWIDTH 13 0
BBX 11 12 1 0
BITMAP
8000
e000
f000
3c00
0f00
03c0
03e0
0f00
3c00
f000
e000
8000
ENDCHAR
STARTCHAR question
ENCODING 63
SWIDTH 572 0
DWIDTH 11 0
BBX 9 14 1 0
BITMAP
fe00
ff00
8780
0380
0380
0700
0c00
1c00
3800
3800
0000
0000
3800
3800
ENDCHAR
STARTCHAR at
ENCODING 64
SWIDTH 833 0
DWIDTH 16 0
BBX 15 14 2 0
BITMAP
03f0
0c18
1004
2006
43f2
4462
8c62
98c2
99c4
9f4c
8cf0
4000
3080
0fc0
ENDCHAR
STARTCHAR A
ENCODING 65
SWIDTH 773 0
DWIDTH 15 0
BBX 14 14 0 0
BITMAP
0780
0780
0fc0
0dc0
0dc0
19e0
18e0
38e0
3ff0
3ff0
7078
6038
6038
c03c
ENDCHAR
STARTCHAR B
ENCODING 66
SWIDTH 669 0
DWIDTH 13 0
BBX 10 14 2 0
BITMAP
ff00
ff00
e380
e380
e380
e700
fc00
ff00
e3c0
e1c0
e1c0
e1c0
ff80
ff00
ENDCHAR
STARTCHAR C
ENCODING 67
SWIDTH 726 0
DWIDTH 14 0
BBX 13 14 0 0
BITMAP
07f8
1ff8
7c18
7000
f000
e000
e000
e000
e000
f000
7000
7c08
1ff8
0ff0
ENDCHAR
STARTCHAR D
ENCODING 68
SWIDTH 819 0
DWIDTH 16 0
BBX 13 14 2 0
BITMAP
ff80
ffe0
e1f0
e070
e078
e038
e038
e038
e038
e038
e070
e0f0
ffe0
ff80
ENDCHAR
STARTCHAR E
ENCODING 69
SWIDTH 645 0
DWIDTH 12 0
BBX 9 14 2 0
BITMAP
ff80
ff80
e000
e000
e000
e000
ff00
ff00
e000
e000
e000
e000
ff80
ff80
ENDCHAR
STARTCHAR F
ENCODING 70
SWIDTH 602 0
DWIDTH 11 0
BBX 9 14 2 0
BITMAP
ff80
ff80
e000
e000
e000
e000
ff00
ff00
e000
e000
e000
e000
e000
e000
ENDCHAR
STARTCHAR G
ENCODING 71
SWIDTH 759 0
DWIDTH 14 0
BBX 12 14 1 0
BITMAP
0ff0
3ff0
7810
7000
f000
e000
e000
e070
e070
e070
7070
7c70
3ff0
0fe0
ENDCHAR
STARTCHAR H
ENCODING 72
SWIDTH 813 0
DWIDTH 15 0
BBX 12 14 2 0
BITMAP
e070
e070
e070
e070
e070
e070
fff0
fff0
e070
e070
e070
e070
e070
e070
ENDCHAR
STARTCHAR I
ENCODING 73
SWIDTH 361 0
DWIDTH 7 0
BBX 3 14 2 0
BITMAP
e0
e0
e0
e0
e0
e0
e0
e0
e0
e0
e0
e0
e0
e0
ENDCHAR
STARTCHAR J
ENCODING 74
SWIDTH 501 0
DWIDTH 10 0
BBX 7 18 1 -4
BITMAP
0e
0e
0e
0e
0e
0e
0e
0e
0e
0e
0e
0e
0e
0e
0e
8e
fc
f8
ENDCHAR
STARTCHAR K
ENCODING 75
SWIDTH 753 0
DWIDTH 14 0
BBX 12 14 2 0
BITMAP
e0e0
e1c0
e380
e300
e600
ee00
fc00
fe00
ef00
e700
e780
e3c0
e1e0
e1f0
ENDCHAR
STARTCHAR L
ENCODING 76
SWIDTH 620 0
DWIDTH 12 0
BBX 9 14 2 0
BITMAP
e000
e000
e000
e000
e000
e000
e000
e000
e000
e000
e000
e000
ff80
ff80
ENDCHAR
STARTCHAR M
ENCODING 77
SWIDTH 940 0
DWIDTH 18 0
BBX 15 14 1 0
BITMAP
f81e
f83e
f83e
fc3e
dc7e
dc6e
de6e
ceee
cece
cfce
c78e
c78e
c38e
c00e
ENDCHAR
STARTCHAR N
ENCODING 78
SWIDTH 783 0
DWIDTH 15 0
BBX 12 14 1 0
BITMAP
e030
f030
f030
f830
fc30
de30
ce30
c730
c7b0
c3f0
c1f0
c0f0
c0f0
c070
ENDCHAR
STARTCHAR O
ENCODING 79
SWIDTH 855 0
DWIDTH 16 0
BBX 15 14 1 0
BITMAP
0fe0
3ff0
783c
701c
f01e
e00e
e00e
e00e
e00e
f01e
701c
783c
3ff0
0fe0
ENDCHAR
STARTCHAR P
ENCODING 80
SWIDTH 657 0
DWIDTH 12 0
BBX 10 14 2 0
BITMAP
ff00
ffc0
e3c0
e1c0
e1c0
e1c0
e380
ff80
fe00
e000
e000
e000
e000
e000
ENDCHAR
STARTCHAR Q
ENCODING 81
SWIDTH 855 0
DWIDTH 16 0
BBX 17 18 1 -4
BITMAP
0fe000
3ff000
783c00
701c00
f01e00
e00e00
e00e00
e00e00
e00e00
f01e00
701c00
783c00
3ff800
0ff000
007f80
003f00
001f00
000600
ENDCHAR
STARTCHAR R
ENCODING 82
SWIDTH 734 0
DWIDTH 14 0
BBX 12 14 2 0
BITMAP
ff00
ff80
e1c0
e1c0
e1c0
e380
ff80
fe00
e700
e700
e380
e3c0
e1e0
e1f0
ENDCHAR
STARTCHAR S
ENCODING 83
SWIDTH 594 0
DWIDTH 11 0
BBX 10 14 1 0
BITMAP
3f80
7f80
f080
f000
f000
fc00
7f00
1f80
07c0
01c0
01c0
83c0
ff80
fe00
ENDCHAR
STARTCHAR T
ENCODING 84
SWIDTH 735 0
DWIDTH 14 0
BBX 13 14 0 0
BITMAP
fff8
fff8
0700
0700
0700
0700
0700
0700
0700
0700
0700
0700
0700
0700
ENDCHAR
STARTCHAR U
ENCODING 85
SWIDTH 783 0
DWIDTH 15 0
BBX 12 14 1 0
BITMAP
e070
e070
e070
e070
e070
e070
e070
e070
e070
e070
e070
70e0
7fe0
1f80
ENDCHAR
STARTCHAR V
ENCODING 86
SWIDTH 735 0
DWIDTH 14 0
BBX 14 14 0 0
BITMAP
f00c
7018
7818
3838
3830
3c30
1c60
1c60
0e60
0ec0
0ec0
07c0
0780
0780
ENDCHAR
STARTCHAR W
ENCODING 87
SWIDTH 940 0
DWIDTH 18 0
BBX 17 14 0 0
BITMAP
e0c180
71e180
71e300
71e300
71e300
7bf300
3b7600
3b7600
3b7600
3b7600
1e3c00
1e3c00
1e3c00
1e3c00
ENDCHAR
STARTCHAR X
ENCODING 88
SWIDTH 699 0
DWIDTH 13 0
BBX 12 14 1 0
BITMAP
7070
78e0
38c0
3d80
1d80
1f00
0f00
0f00
0f80
1b80
3bc0
31c0
61e0
e0f0
ENDCHAR
STARTCHAR Y
ENCODING 89
SWIDTH 738 0
DWIDTH 14 0
BBX 13 14 1 0
BITMAP
f038
7830
3860
3ce0
1cc0
0fc0
0f80
0700
0700
0700
0700
0700
0700
0700
ENDCHAR
STARTCHAR Z
ENCODING 90
SWIDTH 675 0
DWIDTH 13 0
BBX 11 14 1 0
BITMAP
ffe0
ffe0
01c0
03c0
0780
0700
0f00
1e00
1c00
3c00
7800
7000
ffe0
ffe0
ENDCHAR
STARTCHAR bracketleft
ENCODING 91
SWIDTH 386 0
DWIDTH 7 0
BBX 5 18 1 -4
BITMAP
f8
f8
e0
e0
e0
e0
e0
e0
e0
e0
e0
e0
e0
e0
e0
e0
f8
f8
ENDCHAR
STARTCHAR backslash
ENCODING 92
SWIDTH 596 0
DWIDTH 11 0
BBX 11 18 0 -4
BITMAP
e000
6000
7000
3000
3800
1800
1800
0c00
0c00
0600
0600
0300
0300
0380
0180
01c0
00c0
00e0
ENDCHAR
STARTCHAR bracketright
ENCODING 93
SWIDTH 386 0
DWIDTH 7 0
BBX 5 18 1 -4
BITMAP
f8
f8
38
38
38
38
38
38
38
38
38
38
38
38
38
38
f8
f8
ENDCHAR
STARTCHAR asciicircum
ENCODING 94
SWIDTH 687 0
DWIDTH 13 0
BBX 11 12 1 2
BITMAP
0400
0400
0e00
0e00
1f00
1b00
1b00
3180
3180
60c0
60c0
c060
ENDCHAR
STARTCHAR underscore
ENCODING 95
SWIDTH 500 0
DWIDTH 10 0
BBX 8 2 1 -3
BITMAP
ff
ff
ENDCHAR
STARTCHAR grave
ENCODING 96
SWIDTH 675 0
DWIDTH 13 0
BBX 5 2 3 12
BITMAP
e0
38
ENDCHAR
STARTCHAR a
ENCODING 97
SWIDTH 623 0
DWIDTH 12 0
BBX 10 10 1 0
BITMAP
7e00
7f80
4380
0380
3f80
ff80
e380
e380
ffc0
7bc0
ENDCHAR
STARTCHAR b
ENCODING 98
SWIDTH 696 0
DWIDTH 13 0
BBX 11 14 2 0
BITMAP
e000
e000
e000
e000
ef80
ffc0
f1e0
e0e0
e0e0
e0e0
e0e0
f1e0
ffc0
ef80
ENDCHAR
STARTCHAR c
ENCODING 99
SWIDTH 545 0
DWIDTH 10 0
BBX 8 10 1 0
BITMAP
1f
7f
71
e0
e0
e0
e0
70
7f
1f
ENDCHAR
STARTCHAR d
ENCODING 100
SWIDTH 696 0
DWIDTH 13 0
BBX 11 14 1 0
BITMAP
00e0
00e0
00e0
00e0
3ee0
7fe0
71e0
e0e0
e0e0
e0e0
e0e0
f1e0
7fe0
3ee0
ENDCHAR
STARTCHAR e
ENCODING 101
SWIDTH 614 0
DWIDTH 12 0
BBX 10 10 1 0
BITMAP
1f00
7f80
71c0
e1c0
ffc0
ffc0
f000
7040
7fc0
1fc0
ENDCHAR
STARTCHAR f
ENCODING 102
SWIDTH 461 0
DWIDTH 9 0
BBX 8 14 1 0
BITMAP
3f
7f
70
70
fe
fe
70
70
70
70
70
70
70
70
ENDCHAR
STARTCHAR g
ENCODING 103
SWIDTH 696 0
DWIDTH 13 0
BBX 11 14 1 -4
BITMAP
3ee0
7fe0
71e0
e0e0
e0e0
e0e0
e0e0
f1e0
7fe0
3ce0
00e0
41e0
7fc0
3f00
ENDCHAR
STARTCHAR h
ENCODING 104
SWIDTH 693 0
DWIDTH 13 0
BBX 10 14 2 0
BITMAP
e000
e000
e000
e000
ef80
ffc0
f1c0
e1c0
e1c0
e1c0
e1c0
e1c0
e1c0
e1c0
ENDCHAR
STARTCHAR i
ENCODING 105
SWIDTH 361 0
DWIDTH 7 0
BBX 3 14 2 0
BITMAP
e0
e0
00
00
e0
e0
e0
e0
e0
e0
e0
e0
e0
e0
ENDCHAR
STARTCHAR j
ENCODING 106
SWIDTH 361 0
DWIDTH 7 0
BBX 6 18 0 -4
BITMAP
1c
1c
00
00
1c
1c
1c
1c
1c
1c
1c
1c
1c
1c
1c
9c
fc
f8
ENDCHAR
STARTCHAR k
ENCODING 107
SWIDTH 681 0
DWIDTH 13 0
BBX 10 14 2 0
BITMAP
e000
e000
e000
e000
e380
e700
e600
ec00
ec00
fe00
ee00
ef00
e780
e3c0
ENDCHAR
STARTCHAR l
ENCODING 108
SWIDTH 361 0
DWIDTH 7 0
BBX 3 14 2 0
BITMAP
e0
e0
e0
e0
e0
e0
e0
e0
e0
e0
e0
e0
e0
e0
ENDCHAR
STARTCHAR m
ENCODING 109
SWIDTH 1006 0
DWIDTH 19 0
BBX 17 10 1 0
BITMAP
e79f00
ffff80
f1e380
e1c380
e1c380
e1c380
e1c380
e1c380
e1c380
e1c380
ENDCHAR
STARTCHAR n
ENCODING 110
SWIDTH 693 0
DWIDTH 13 0
BBX 10 10 2 0
BITMAP
ef80
ffc0
f1c0
e1c0
e1c0
e1c0
e1c0
e1c0
e1c0
e1c0
ENDCHAR
STARTCHAR o
ENCODING 111
SWIDTH 675 0
DWIDTH 13 0
BBX 11 10 1 0
BITMAP
1f00
7fc0
71c0
e0e0
e0e0
e0e0
e0e0
71c0
7fc0
1f00
ENDCHAR
STARTCHAR p
ENCODING 112
SWIDTH 696 0
DWIDTH 13 0
BBX 11 14 2 -4
BITMAP
ef80
ffc0
f1e0
e0e0
e0e0
e0e0
e0e0
f1c0
ffc0
ef80
e000
e000
e000
e000
ENDCHAR
STARTCHAR q
ENCODING 113
SWIDTH 696 0
DWIDTH 13 0
BBX 11 14 1 -4
BITMAP
3ee0
7fe0
f1e0
e0e0
e0e0
e0e0
e0e0
f1e0
7fe0
3ee0
00e0
00e0
00e0
00e0
ENDCHAR
STARTCHAR r
ENCODING 114
SWIDTH 500 0
DWIDTH 9 0
BBX 7 10 2 0
BITMAP
ee
fe
fe
f0
e0
e0
e0
e0
e0
e0
ENDCHAR
STARTCHAR s
ENCODING 115
SWIDTH 622 0
DWIDTH 12 0
BBX 9 10 2 0
BITMAP
7f00
ff00
f100
f000
fe00
3f80
0f80
8780
ff00
fe00
ENDCHAR
STARTCHAR t
ENCODING 116
SWIDTH 436 0
DWIDTH 8 0
BBX 6 13 1 0
BITMAP
30
70
70
fc
fc
70
70
70
70
70
70
7c
3c
ENDCHAR
STARTCHAR u
ENCODING 117
SWIDTH 693 0
DWIDTH 13 0
BBX 10 10 2 0
BITMAP
e1c0
e1c0
e1c0
e1c0
e1c0
e1c0
e1c0
e3c0
ffc0
7dc0
ENDCHAR
STARTCHAR v
ENCODING 118
SWIDTH 663 0
DWIDTH 13 0
BBX 12 10 0 0
BITMAP
f070
7060
7860
38c0
3cc0
1dc0
1d80
0f80
0f00
0f00
ENDCHAR
STARTCHAR w
ENCODING 119
SWIDTH 885 0
DWIDTH 17 0
BBX 16 10 0 0
BITMAP
e1c3
73c6
73e6
73e6
73ee
3eec
3e7c
3e7c
3c78
1c78
ENDCHAR
STARTCHAR x
ENCODING 120
SWIDTH 568 0
DWIDTH 11 0
BBX 10 10 1 0
BITMAP
f1c0
7b80
3f00
3f00
1e00
1e00
3f00
3780
7780
e3c0
ENDCHAR
STARTCHAR y
ENCODING 121
SWIDTH 645 0
DWIDTH 12 0
BBX 12 14 0 -4
BITMAP
f070
7060
78e0
38c0
39c0
1d80
1f80
1f00
0f00
0e00
0e00
1c00
3c00
7800
ENDCHAR
STARTCHAR z
ENCODING 122
SWIDTH 608 0
DWIDTH 12 0
BBX 10 10 1 0
BITMAP
ffc0
ffc0
0780
0f00
1e00
3e00
7c00
7800
ffc0
ffc0
ENDCHAR
STARTCHAR braceleft
ENCODING 123
SWIDTH 386 0
DWIDTH 7 0
BBX 5 18 1 -4
BITMAP
38
78
70
70
70
38
38
30
e0
e0
30
38
38
78
70
70
78
38
ENDCHAR
STARTCHAR bar
ENCODING 124
SWIDTH 265 0
DWIDTH 5 0
BBX 2 18 2 -4
BITMAP
c0
c0
c0
c0
c0
c0
c0
c0
c0
c0
c0
c0
c0
c0
c0
c0
c0
c0
ENDCHAR
STARTCHAR braceright
ENCODING 125
SWIDTH 386 0
DWIDTH 7 0
BBX 5 18 1 -4
BITMAP
c0
e0
e0
e0
e0
e0
e0
60
38
38
60
e0
e0
e0
e0
e0
e0
c0
ENDCHAR
STARTCHAR asciitilde
ENCODING 126
SWIDTH 687 0
DWIDTH 13 0
BBX 11 5 1 3
BITMAP
7860
7c60
ce60
c7c0
c3c0
ENDCHAR
STARTCHAR nobreakspace
ENCODING 160
SWIDTH 343 0
DWIDTH 6 0
BBX 1 1 0 0
BITMAP
00
ENDCHAR
STARTCHAR Aogonek
ENCODING 161
SWIDTH 773 0
DWIDTH 15 0
BBX 14 16 0 -2
BITMAP
0780
0780
0fc0
0dc0
0dc0
19e0
18e0
38e0
3ff0
3ff0
7078
6038
6038
c03c
0700
0780
ENDCHAR
STARTCHAR breve
ENCODING 162
SWIDTH 675 0
DWIDTH 13 0
BBX 7 2 3 12
BITMAP
ee
7c
ENDCHAR
STARTCHAR Lstroke
ENCODING 163
SWIDTH 620 0
DWIDTH 12 0
BBX 11 14 0 0
BITMAP
3800
3800
3800
3800
3a00
3e00
3e00
7800
f800
f800
3800
3800
3fe0
3fe0
ENDCHAR
STARTCHAR currency
ENCODING 164
SWIDTH 687 0
DWIDTH 13 0
BBX 13 14 0 0
BITMAP
4010
e038
6030
3760
1fc0
38e0
3060
3060
3060
18c0
3fe0
7770
e038
4010
ENDCHAR
STARTCHAR Lcaron
ENCODING 165
SWIDTH 620 0
DWIDTH 12 0
BBX 9 16 2 0
BITMAP
0f00
0f00
ef00
e700
e600
ec00
e000
e000
e000
e000
e000
e000
e000
e000
ff80
ff80
ENDCHAR
STARTCHAR Sacute
ENCODING 166
SWIDTH 594 0
DWIDTH 11 0
BBX 10 17 1 0
BITMAP
0700
1c00
0000
3f80
7f80
f080
f000
f000
fc00
7f00
1f80
07c0
01c0
01c0
83c0
ff80
fe00
ENDCHAR
STARTCHAR section
ENCODING 167
SWIDTH 693 0
DWIDTH 13 0
BBX 10 18 2 -4
BITMAP
3f80
7f80
f080
f000
f800
7f00
7f80
c7c0
c1c0
e0c0
fc80
7f80
1f80
07c0
03c0
c3c0
ff80
ff00
ENDCHAR
STARTCHAR diaeresis
ENCODING 168
SWIDTH 675 0
DWIDTH 13 0
BBX 6 2 3 12
BITMAP
cc
cc
ENDCHAR
STARTCHAR Scaron
ENCODING 169
SWIDTH 594 0
DWIDTH 11 0
BBX 10 17 1 0
BITMAP
7700
1c00
0000
3f80
7f80
f080
f000
f000
fc00
7f00
1f80
07c0
01c0
01c0
83c0
ff80
fe00
ENDCHAR
STARTCHAR Scedilla
ENCODING 170
SWIDTH 594 0
DWIDTH 11 0
BBX 10 18 1 -4
BITMAP
3f80
7f80
f080
f000
f000
fc00
7f00
1f80
07c0
01c0
01c0
83c0
ff80
fe00
1c00
0c00
0600
1e00
ENDCHAR
STARTCHAR Tcaron
ENCODING 171
SWIDTH 735 0
DWIDTH 14 0
BBX 13 17 0 0
BITMAP
1dc0
0700
0000
fff8
fff8
0700
0700
0700
0700
0700
0700
0700
0700
0700
0700
0700
0700
ENDCHAR
STARTCHAR Zacute
ENCODING 172
SWIDTH 675 0
DWIDTH 13 0
BBX 11 17 1 0
BITMAP
0380
0e00
0000
ffe0
ffe0
01c0
03c0
0780
0700
0f00
1e00
1c00
3c00
7800
7000
ffe0
ffe0
ENDCHAR
STARTCHAR hyphen
ENCODING 173
SWIDTH 289 0
DWIDTH 5 0
BBX 4 2 1 5
BITMAP
f0
f0
ENDCHAR
STARTCHAR Zcaron
ENCODING 174
SWIDTH 675 0
DWIDTH 13 0
BBX 11 17 1 0
BITMAP
3b80
0e00
0000
ffe0
ffe0
01c0
03c0
0780
0700
0f00
1e00
1c00
3c00
7800
7000
ffe0
ffe0
ENDCHAR
STARTCHAR Zabovedot
ENCODING 175
SWIDTH 675 0
DWIDTH 13 0
BBX 11 17 1 0
BITMAP
0e00
0e00
0000
ffe0
ffe0
01c0
03c0
0780
0700
0f00
1e00
1c00
3c00
7800
7000
ffe0
ffe0
ENDCHAR
STARTCHAR degree
ENCODING 176
SWIDTH 241 0
DWIDTH 5 0
BBX 3 4 1 10
BITMAP
40
a0
a0
40
ENDCHAR
STARTCHAR aogonek
ENCODING 177
SWIDTH 623 0
DWIDTH 12 0
BBX 10 12 1 -2
BITMAP
7e00
7f80
4380
0380
3f80
ff80
e380
e380
ffc0
7bc0
1c00
1e00
ENDCHAR
STARTCHAR ogonek
ENCODING 178
SWIDTH 675 0
DWIDTH 13 0
BBX 4 2 5 -4
BITMAP
e0
f0
ENDCHAR
STARTCHAR lstroke
ENCODING 179
SWIDTH 361 0
DWIDTH 7 0
BBX 7 14 0 0
BITMAP
38
38
38
38
3a
3e
3c
f8
f8
b8
38
38
38
38
ENDCHAR
STARTCHAR acute
ENCODING 180
SWIDTH 675 0
DWIDTH 13 0
BBX 5 2 4 12
BITMAP
38
e0
ENDCHAR
STARTCHAR lcaron
ENCODING 181
SWIDTH 631 0
DWIDTH 12 0
BBX 8 16 2 0
BITMAP
0f
0f
ef
e7
e6
ec
e0
e0
e0
e0
e0
e0
e0
e0
e0
e0
ENDCHAR
STARTCHAR sacute
ENCODING 182
SWIDTH 622 0
DWIDTH 12 0
BBX 9 13 2 0
BITMAP
0e00
3800
0000
7f00
ff00
f100
f000
fe00
3f80
0f80
8780
ff00
fe00
ENDCHAR
STARTCHAR caron
ENCODING 183
SWIDTH 675 0
DWIDTH 13 0
BBX 7 2 3 12
BITMAP
ee
38
ENDCHAR
STARTCHAR cedilla
ENCODING 184
SWIDTH 675 0
DWIDTH 13 0
BBX 4 4 5 -4
BITMAP
e0
60
30
f0
ENDCHAR
STARTCHAR scaron
ENCODING 185
SWIDTH 622 0
DWIDTH 12 0
BBX 9 13 2 0
BITMAP
ee00
3800
0000
7f00
ff00
f100
f000
fe00
3f80
0f80
8780
ff00
fe00
ENDCHAR
STARTCHAR scedilla
ENCODING 186
SWIDTH 622 0
DWIDTH 12 0
BBX 9 14 2 -4
BITMAP
7f00
ff00
f100
f000
fe00
3f80
0f80
8780
ff00
fe00
1c00
0c00
0600
1e00
ENDCHAR
STARTCHAR tcaron
ENCODING 187
SWIDTH 578 0
DWIDTH 11 0
BBX 9 17 1 0
BITMAP
0780
0780
0780
0380
3300
7600
7000
fc00
fc00
7000
7000
7000
7000
7000
7000
7c00
3c00
ENDCHAR
STARTCHAR zacute
ENCODING 188
SWIDTH 608 0
DWIDTH 12 0
BBX 10 13 1 0
BITMAP
0700
1c00
0000
ffc0
ffc0
0780
0f00
1e00
3e00
7c00
7800
ffc0
ffc0
ENDCHAR
STARTCHAR doubleacute
ENCODING 189
SWIDTH 675 0
DWIDTH 13 0
BBX 7 2 4 12
BITMAP
7e
d8
ENDCHAR
STARTCHAR zcaron
ENCODING 190
SWIDTH 608 0
DWIDTH 12 0
BBX 10 13 1 0
BITMAP
7700
1c00
0000
ffc0
ffc0
0780
0f00
1e00
3e00
7c00
7800
ffc0
ffc0
ENDCHAR
STARTCHAR zabovedot
ENCODING 191
SWIDTH 608 0
DWIDTH 12 0
BBX 10 13 1 0
BITMAP
1c00
1c00
0000
ffc0
ffc0
0780
0f00
1e00
3e00
7c00
7800
ffc0
ffc0
ENDCHAR
STARTCHAR Racute
ENCODING 192
SWIDTH 734 0
DWIDTH 14 0
BBX 12 17 2 0
BITMAP
0700
1c00
0000
ff00
ff80
e1c0
e1c0
e1c0
e380
ff80
fe00
e700
e700
e380
e3c0
e1e0
e1f0
ENDCHAR
STARTCHAR Aacute
ENCODING 193
SWIDTH 773 0
DWIDTH 15 0
BBX 14 17 0 0
BITMAP
01c0
0700
0000
0780
0780
0fc0
0dc0
0dc0
19e0
18e0
38e0
3ff0
3ff0
7078
6038
6038
c03c
ENDCHAR
STARTCHAR Acircumflex
ENCODING 194
SWIDTH 773 0
DWIDTH 15 0
BBX 14 17 0 0
BITMAP
0380
0ee0
0000
0780
0780
0fc0
0dc0
0dc0
19e0
18e0
38e0
3ff0
3ff0
7078
6038
6038
c03c
ENDCHAR
STARTCHAR Abreve
ENCODING 195
SWIDTH 773 0
DWIDTH 15 0
BBX 14 17 0 0
BITMAP
1dc0
0f80
0000
0780
0780
0fc0
0dc0
0dc0
19e0
18e0
38e0
3ff0
3ff0
7078
6038
6038
c03c
ENDCHAR
STARTCHAR Adiaeresis
ENCODING 196
SWIDTH 773 0
DWIDTH 15 0
BBX 14 17 0 0
BITMAP
0cc0
0cc0
0000
0780
0780
0fc0
0dc0
0dc0
19e0
18e0
38e0
3ff0
3ff0
7078
6038
6038
c03c
ENDCHAR
STARTCHAR Lacute
ENCODING 197
SWIDTH 620 0
DWIDTH 12 0
BBX 9 17 2 0
BITMAP
3800
e000
0000
e000
e000
e000
e000
e000
e000
e000
e000
e000
e000
e000
e000
ff80
ff80
ENDCHAR
STARTCHAR Cacute
ENCODING 198
SWIDTH 726 0
DWIDTH 14 0
BBX 13 17 0 0
BITMAP
01c0
0700
0000
07f8
1ff8
7c18
7000
f000
e000
e000
e000
e000
f000
7000
7c08
1ff8
0ff0
ENDCHAR
STARTCHAR Ccedilla
ENCODING 199
SWIDTH 726 0
DWIDTH 14 0
BBX 13 18 0 -4
BITMAP
07f8
1ff8
7c18
7000
f000
e000
e000
e000
e000
f000
7000
7c08
1ff8
0ff0
0300
0300
0180
0780
ENDCHAR
STARTCHAR Ccaron
ENCODING 200
SWIDTH 726 0
DWIDTH 14 0
BBX 13 17 0 0
BITMAP
1dc0
0700
0000
07f8
1ff8
7c18
7000
f000
e000
e000
e000
e000
f000
7000
7c08
1ff8
0ff0
ENDCHAR
STARTCHAR Eacute
ENCODING 201
SWIDTH 645 0
DWIDTH 12 0
BBX 9 17 2 0
BITMAP
0700
1c00
0000
ff80
ff80
e000
e000
e000
e000
ff00
ff00
e000
e000
e000
e000
ff80
ff80
ENDCHAR
STARTCHAR Eogonek
ENCODING 202
SWIDTH 645 0
DWIDTH 12 0
BBX 9 16 2 -2
BITMAP
ff80
ff80
e000
e000
e000
e000
ff00
ff00
e000
e000
e000
e000
ff80
ff80
1c00
1e00
ENDCHAR
STARTCHAR Ediaeresis
ENCODING 203
SWIDTH 645 0
DWIDTH 12 0
BBX 9 17 2 0
BITMAP
6600
6600
0000
ff80
ff80
e000
e000
e000
e000
ff00
ff00
e000
e000
e000
e000
ff80
ff80
ENDCHAR
STARTCHAR Ecaron
ENCODING 204
SWIDTH 645 0
DWIDTH 12 0
BBX 9 17 2 0
BITMAP
7700
1c00
0000
ff80
ff80
e000
e000
e000
e000
ff00
ff00
e000
e000
e000
e000
ff80
ff80
ENDCHAR
STARTCHAR Iacute
ENCODING 205
SWIDTH 361 0
DWIDTH 7 0
BBX 5 17 2 0
BITMAP
38
e0
00
e0
e0
e0
e0
e0
e0
e0
e0
e0
e0
e0
e0
e0
e0
ENDCHAR
STARTCHAR Icircumflex
ENCODING 206
SWIDTH 361 0
DWIDTH 7 0
BBX 7 17 4 0
BITMAP
38
ee
00
38
38
38
38
38
38
38
38
38
38
38
38
38
38
ENDCHAR
STARTCHAR Dcaron
ENCODING 207
SWIDTH 819 0
DWIDTH 16 0
BBX 13 17 2 0
BITMAP
3b80
0e00
0000
ff80
ffe0
e1f0
e070
e078
e038
e038
e038
e038
e038
e070
e0f0
ffe0
ff80
ENDCHAR
STARTCHAR Dstroke
ENCODING 208
SWIDTH 819 0
DWIDTH 16 0
BBX 15 14 0 0
BITMAP
3fe0
3ff8
387c
381c
381e
380e
ff0e
ff0e
380e
380e
381c
383c
3ff8
3fe0
ENDCHAR
STARTCHAR Nacute
ENCODING 209
SWIDTH 783 0
DWIDTH 15 0
BBX 12 17 1 0
BITMAP
0380
0e00
0000
e030
f030
f030
f830
fc30
de30
ce30
c730
c7b0
c3f0
c1f0
c0f0
c0f0
c070
ENDCHAR
STARTCHAR Ncaron
ENCODING 210
SWIDTH 783 0
DWIDTH 15 0
BBX 12 17 1 0
BITMAP
3b80
0e00
0000
e030
f030
f030
f830
fc30
de30
ce30
c730
c7b0
c3f0
c1f0
c0f0
c0f0
c070
ENDCHAR
STARTCHAR Oacute
ENCODING 211
SWIDTH 855 0
DWIDTH 16 0
BBX 15 17 1 0
BITMAP
00e0
0380
0000
0fe0
3ff0
783c
701c
f01e
e00e
e00e
e00e
e00e
f01e
701c
783c
3ff0
0fe0
ENDCHAR
STARTCHAR Ocircumflex
ENCODING 212
SWIDTH 855 0
DWIDTH 16 0
BBX 15 17 1 0
BITMAP
0380
0ee0
0000
0fe0
3ff0
783c
701c
f01e
e00e
e00e
e00e
e00e
f01e
701c
783c
3ff0
0fe0
ENDCHAR
STARTCHAR Odoubleacute
ENCODING 213
SWIDTH 855 0
DWIDTH 16 0
BBX 15 17 1 0
BITMAP
03f0
06c0
0000
0fe0
3ff0
783c
701c
f01e
e00e
e00e
e00e
e00e
f01e
701c
783c
3ff0
0fe0
ENDCHAR
STARTCHAR Odiaeresis
ENCODING 214
SWIDTH 855 0
DWIDTH 16 0
BBX 15 17 1 0
BITMAP
0660
0660
0000
0fe0
3ff0
783c
701c
f01e
e00e
e00e
e00e
e00e
f01e
701c
783c
3ff0
0fe0
ENDCHAR
STARTCHAR multiply
ENCODING 215
SWIDTH 687 0
DWIDTH 13 0
BBX 11 12 1 0
BITMAP
4040
e0e0
71c0
3b80
1f00
0e00
0e00
1f00
3b80
71c0
e0e0
4040
ENDCHAR
STARTCHAR Rcaron
ENCODING 216
SWIDTH 734 0
DWIDTH 14 0
BBX 12 17 2 0
BITMAP
7700
1c00
0000
ff00
ff80
e1c0
e1c0
e1c0
e380
ff80
fe00
e700
e700
e380
e3c0
e1e0
e1f0
ENDCHAR
STARTCHAR Uring
ENCODING 217
SWIDTH 783 0
DWIDTH 15 0
BBX 12 17 1 0
BITMAP
0e00
0e00
0000
e070
e070
e070
e070
e070
e070
e070
e070
e070
e070
e070
70e0
7fe0
1f80
ENDCHAR
STARTCHAR Uacute
ENCODING 218
SWIDTH 783 0
DWIDTH 15 0
BBX 12 17 1 0
BITMAP
0380
0e00
0000
e070
e070
e070
e070
e070
e070
e070
e070
e070
e070
e070
70e0
7fe0
1f80
ENDCHAR
STARTCHAR Udoubleacute
ENCODING 219
SWIDTH 783 0
DWIDTH 15 0
BBX 12 17 1 0
BITMAP
0fc0
1b00
0000
e070
e070
e070
e070
e070
e070
e070
e070
e070
e070
e070
70e0
7fe0
1f80
ENDCHAR
STARTCHAR Udiaeresis
ENCODING 220
SWIDTH 783 0
DWIDTH 15 0
BBX 12 17 1 0
BITMAP
1980
1980
0000
e070
e070
e070
e070
e070
e070
e070
e070
e070
e070
e070
70e0
7fe0
1f80
ENDCHAR
STARTCHAR Yacute
ENCODING 221
SWIDTH 738 0
DWIDTH 14 0
BBX 13 17 1 0
BITMAP
01c0
0700
0000
f038
7830
3860
3ce0
1cc0
0fc0
0f80
0700
0700
0700
0700
0700
0700
0700
ENDCHAR
STARTCHAR Tcedilla
ENCODING 222
SWIDTH 735 0
DWIDTH 14 0
BBX 13 18 0 -4
BITMAP
fff8
fff8
0700
0700
0700
0700
0700
0700
0700
0700
0700
0700
0700
0700
0700
0300
0180
0780
ENDCHAR
STARTCHAR ssharp
ENCODING 223
SWIDTH 724 0
DWIDTH 14 0
BBX 12 14 2 0
BITMAP
3f00
7f80
e380
e380
e700
e600
ee00
ef80
e7e0
e1f0
e0f0
e070
efe0
efc0
ENDCHAR
STARTCHAR racute
ENCODING 224
SWIDTH 500 0
DWIDTH 9 0
BBX 7 13 2 0
BITMAP
0e
38
00
ee
fe
fe
f0
e0
e0
e0
e0
e0
e0
ENDCHAR
STARTCHAR aacute
ENCODING 225
SWIDTH 623 0
DWIDTH 12 0
BBX 10 13 1 0
BITMAP
0700
1c00
0000
7e00
7f80
4380
0380
3f80
ff80
e380
e380
ffc0
7bc0
ENDCHAR
STARTCHAR acircumflex
ENCODING 226
SWIDTH 623 0
DWIDTH 12 0
BBX 10 13 1 0
BITMAP
0e00
3b80
0000
7e00
7f80
4380
0380
3f80
ff80
e380
e380
ffc0
7bc0
ENDCHAR
STARTCHAR abreve
ENCODING 227
SWIDTH 623 0
DWIDTH 12 0
BBX 10 13 1 0
BITMAP
7700
3e00
0000
7e00
7f80
4380
0380
3f80
ff80
e380
e380
ffc0
7bc0
ENDCHAR
STARTCHAR adiaeresis
ENCODING 228
SWIDTH 623 0
DWIDTH 12 0
BBX 10 13 1 0
BITMAP
3300
3300
0000
7e00
7f80
4380
0380
3f80
ff80
e380
e380
ffc0
7bc0
ENDCHAR
STARTCHAR lacute
ENCODING 229
SWIDTH 361 0
DWIDTH 7 0
BBX 5 17 2 0
BITMAP
38
e0
00
e0
e0
e0
e0
e0
e0
e0
e0
e0
e0
e0
e0
e0
e0
ENDCHAR
STARTCHAR cacute
ENCODING 230
SWIDTH 545 0
DWIDTH 10 0
BBX 8 13 1 0
BITMAP
07
1c
00
1f
7f
71
e0
e0
e0
e0
70
7f
1f
ENDCHAR
STARTCHAR ccedilla
ENCODING 231
SWIDTH 545 0
DWIDTH 10 0
BBX 8 14 1 -4
BITMAP
1f
7f
71
e0
e0
e0
e0
70
7f
1f
38
18
0c
3c
ENDCHAR
STARTCHAR ccaron
ENCODING 232
SWIDTH 545 0
DWIDTH 10 0
BBX 8 13 1 0
BITMAP
77
1c
00
1f
7f
71
e0
e0
e0
e0
70
7f
1f
ENDCHAR
STARTCHAR eacute
ENCODING 233
SWIDTH 614 0
DWIDTH 12 0
BBX 10 13 1 0
BITMAP
0700
1c00
0000
1f00
7f80
71c0
e1c0
ffc0
ffc0
f000
7040
7fc0
1fc0
ENDCHAR
STARTCHAR eogonek
ENCODING 234
SWIDTH 614 0
DWIDTH 12 0
BBX 10 12 1 -2
BITMAP
1f00
7f80
71c0
e1c0
ffc0
ffc0
f000
7040
7fc0
1fc0
1c00
1e00
ENDCHAR
STARTCHAR ediaeresis
ENCODING 235
SWIDTH 614 0
DWIDTH 12 0
BBX 10 13 1 0
BITMAP
3300
3300
0000
1f00
7f80
71c0
e1c0
ffc0
ffc0
f000
7040
7fc0
1fc0
ENDCHAR
STARTCHAR ecaron
ENCODING 236
SWIDTH 614 0
DWIDTH 12 0
BBX 10 13 1 0
BITMAP
7700
1c00
0000
1f00
7f80
71c0
e1c0
ffc0
ffc0
f000
7040
7fc0
1fc0
ENDCHAR
STARTCHAR iacute
ENCODING 237
SWIDTH 361 0
DWIDTH 7 0
BBX 5 13 2 0
BITMAP
38
e0
00
e0
e0
e0
e0
e0
e0
e0
e0
e0
e0
ENDCHAR
STARTCHAR icircumflex
ENCODING 238
SWIDTH 361 0
DWIDTH 7 0
BBX 7 13 4 0
BITMAP
38
ee
00
38
38
38
38
38
38
38
38
38
38
ENDCHAR
STARTCHAR dcaron
ENCODING 239
SWIDTH 947 0
DWIDTH 18 0
BBX 16 16 1 0
BITMAP
000f
000f
00ef
00e7
00e6
00ec
3ee0
7fe0
71e0
e0e0
e0e0
e0e0
e0e0
f1e0
7fe0
3ee0
ENDCHAR
STARTCHAR dstroke
ENCODING 240
SWIDTH 894 0
DWIDTH 17 0
BBX 15 14 1 0
BITMAP
00e0
0ffe
00e0
00e0
3ee0
7fe0
71e0
e0e0
e0e0
e0e0
e0e0
f1e0
7fe0
3ee0
ENDCHAR
STARTCHAR nacute
ENCODING 241
SWIDTH 693 0
DWIDTH 13 0
BBX 10 13 2 0
BITMAP
0700
1c00
0000
ef80
ffc0
f1c0
e1c0
e1c0
e1c0
e1c0
e1c0
e1c0
e1c0
ENDCHAR
STARTCHAR ncaron
ENCODING 242
SWIDTH 693 0
DWIDTH 13 0
BBX 10 13 2 0
BITMAP
7700
1c00
0000
ef80
ffc0
f1c0
e1c0
e1c0
e1c0
e1c0
e1c0
e1c0
e1c0
ENDCHAR
STARTCHAR oacute
ENCODING 243
SWIDTH 675 0
DWIDTH 13 0
BBX 11 13 1 0
BITMAP
0380
0e00
0000
1f00
7fc0
71c0
e0e0
e0e0
e0e0
e0e0
71c0
7fc0
1f00
ENDCHAR
STARTCHAR ocircumflex
ENCODING 244
SWIDTH 675 0
DWIDTH 13 0
BBX 11 13 1 0
BITMAP
0e00
3b80
0000
1f00
7fc0
71c0
e0e0
e0e0
e0e0
e0e0
71c0
7fc0
1f00
ENDCHAR
STARTCHAR odoubleacute
ENCODING 245
SWIDTH 675 0
DWIDTH 13 0
BBX 11 13 1 0
BITMAP
0fc0
1b00
0000
1f00
7fc0
71c0
e0e0
e0e0
e0e0
e0e0
71c0
7fc0
1f00
ENDCHAR
STARTCHAR odiaeresis
ENCODING 246
SWIDTH 675 0
DWIDTH 13 0
BBX 11 13 1 0
BITMAP
1980
1980
0000
1f00
7fc0
71c0
e0e0
e0e0
e0e0
e0e0
71c0
7fc0
1f00
ENDCHAR
STARTCHAR division
ENCODING 247
SWIDTH 687 0
DWIDTH 13 0
BBX 11 12 1 0
BITMAP
0c00
0c00
0000
0000
0000
ffe0
ffe0
0000
0000
0000
0c00
0c00
ENDCHAR
STARTCHAR rcaron
ENCODING 248
SWIDTH 500 0
DWIDTH 9 0
BBX 7 13 2 0
BITMAP
ee
38
00
ee
fe
fe
f0
e0
e0
e0
e0
e0
e0
ENDCHAR
STARTCHAR uring
ENCODING 249
SWIDTH 693 0
DWIDTH 13 0
BBX 10 13 2 0
BITMAP
1c00
1c00
0000
e1c0
e1c0
e1c0
e1c0
e1c0
e1c0
e1c0
e3c0
ffc0
7dc0
ENDCHAR
STARTCHAR uacute
ENCODING 250
SWIDTH 693 0
DWIDTH 13 0
BBX 10 13 2 0
BITMAP
0700
1c00
0000
e1c0
e1c0
e1c0
e1c0
e1c0
e1c0
e1c0
e3c0
ffc0
7dc0
ENDCHAR
STARTCHAR udoubleacute
ENCODING 251
SWIDTH 693 0
DWIDTH 13 0
BBX 10 13 2 0
BITMAP
1f80
3600
0000
e1c0
e1c0
e1c0
e1c0
e1c0
e1c0
e1c0
e3c0
ffc0
7dc0
ENDCHAR
STARTCHAR udiaeresis
ENCODING 252
SWIDTH 693 0
DWIDTH 13 0
BBX 10 13 2 0
BITMAP
3300
3300
0000
e1c0
e1c0
e1c0
e1c0
e1c0
e1c0
e1c0
e3c0
ffc0
7dc0
ENDCHAR
STARTCHAR yacute
ENCODING 253
SWIDTH 645 0
DWIDTH 12 0
BBX 12 17 0 -4
BITMAP
0380
0e00
0000
f070
7060
78e0
38c0
39c0
1d80
1f80
1f00
0f00
0e00
0e00
1c00
3c00
7800
ENDCHAR
STARTCHAR tcedilla
ENCODING 254
SWIDTH 436 0
DWIDTH 8 0
BBX 6 17 1 -4
BITMAP
30
70
70
fc
fc
70
70
70
70
70
70
7c
3c
70
30
18
78
ENDCHAR
STARTCHAR abovedot
ENCODING 255
SWIDTH 675 0
DWIDTH 13 0
BBX 3 2 5 12
BITMAP
e0
e0
ENDCHAR
ENDFONT
